# AST/ASF file generated using VICON BodyLanguage
# -----------------------------------------------
:version 1.10
:name VICON
:units
  mass 1.0
  length 0.45
  angle deg
:documentation
   .ast/.asf automatically generated from VICON data using
   VICON BodyBuilder and BodyLanguage model FoxedUp or BRILLIANT.MOD
:root
   order TX TY TZ RX RY RZ
   axis XYZ
   position 0 0 0  
   orientation 0 -0 0 
:bonedata
  begin
     id 1 
     name lhipjoint
     direction 0.515797 -0.759363 0.396637 
     length 2.47888 
     axis 0 -0 0  XYZ
  end
  begin
     id 2 
     name lfemur
     direction 0.34202 -0.939693 0  
     length 6.81885  
     axis 0 -0 20  XYZ
    dof rx ry rz
    limits (-160.0 20.0)
           (-70.0 70.0)
           (-60.0 70.0)
  end
  begin
     id 3 
     name ltibia
     direction 0.342037 -0.939687 0   
     length 7.89258   
     axis 0 -0 20   XYZ
    dof rx
    limits (-10.0 170.0)
  end
  begin
     id 4 
     name lfoot
     direction 0.173497 -0.476678 0.861787   
     length 2.51543   
     axis -90 -1.13533e-015 20   XYZ
    dof rx rz
    limits (-45.0 90.0)
           (-70.0 20.0)
  end
  begin
     id 5 
     name ltoes
     direction 1.53564e-011 -4.21897e-011 1   
     length 1.21388   
     axis -90 -1.13533e-015 20   XYZ
    dof rx
    limits (-90.0 20.0)
  end
  begin
     id 6 
     name rhipjoint
     direction -0.489454 -0.772941 0.403729   
     length 2.43534  
     axis 0 -0 0  XYZ 
  end
  begin
     id 7 
     name rfemur
     direction -0.34202 -0.939693 0   
     length 7.10357   
     axis 0 -0 -20   XYZ
    dof rx ry rz
    limits (-160.0 20.0)
           (-70.0 70.0)
           (-70.0 60.0)
  end
  begin
     id 8 
     name rtibia
     direction -0.34202 -0.939693 0   
     length 9.16127   
     axis 0 -0 -20   XYZ
    dof rx
    limits (-10.0 170.0)
 end
 begin
     id 9 
     name rfoot
     direction -0.270974 -0.748671 0.605033   
     length 1.74894  
     axis -90 1.13533e-015 -20   XYZ
    dof rx rz
    limits (-45.0 90.0)
           (-20.0 70.0)
  end
  begin
     id 10 
     name rtoes
     direction -1.53557e-011 -4.21759e-011 1   
     length 0.787585   
     axis -90 1.13533e-015 -20   XYZ
    dof rx
    limits (-90.0 20.0)
  end
  begin
     id 11 
     name lowerback
     direction -0.0140249 0.999561 0.0260968   
     length 2.16963   
     axis 0 -0 0   XYZ
    dof rx ry rz
    limits (-20.0 45.0)
           (-30.0 30.0)
           (-30.0 30.0)
  end
  begin
     id 12 
     name upperback
     direction 0.00860018 0.999959 -0.002711   
     length 2.1726   
     axis 0 -0 0   XYZ
    dof rx ry rz
    limits (-20.0 45.0)
           (-30.0 30.0)
           (-30.0 30.0)
  end
  begin
     id 13 
     name thorax
     direction 0.015211 0.999782 -0.0143191   
     length 2.17061   
     axis 0 -0 0   XYZ
    dof rx ry rz
    limits (-20.0 45.0)
           (-30.0 30.0)
           (-30.0 30.0)
  end
  begin
     id 14 
     name lowerneck
     direction -0.0140143 0.999447 0.030145   
     length 2.26749   
     axis 0 -0 0   XYZ
    dof rx ry rz
    limits (-20.0 45.0)
           (-30.0 30.0)
           (-30.0 30.0)
  end
  begin
     id 15 
     name upperneck
     direction 0.118062 0.961438 -0.248392   
     length 2.22728   
     axis 0 -0 0   XYZ
    dof rx ry rz
    limits (-20.0 45.0)
           (-30.0 30.0)
           (-30.0 30.0)
  end
  begin
     id 16
     name head
     direction 0.0431885 0.9954 -0.085514  
     length 2.28786  
     axis 0 -0 0   XYZ
    dof rx ry rz
    limits (-20.0 45.0)
           (-30.0 30.0)
           (-30.0 30.0)
  end
  begin
     id 17 
     name lclavicle
     direction 0.912126 0.409548 0.0172323  
     length 4.31571  
     axis 0 -0 0   XYZ
    dof ry rz
    limits (-20.0 10.0)
           (0.0 20.0)
  end
  begin
     id 18 
     name lhumerus
     direction 1 -4.48977e-011 1.93091e-027   
     length 5.13658   
     axis 180 -30 -90   XYZ
    dof rx ry rz
    limits (-60.0 90.0)
           (-90.0 90.0)
           (-90.0 90.0)
  end
  begin
     id 19
     name lradius
     direction 1 -4.48916e-011 6.84018e-027   
     length 3.22473   
     axis 180 -30 -90   XYZ
    dof rx
    limits (-10.0 170.0)
  end
  begin
     id 20
     name lwrist
     direction 1 -4.48987e-011 7.01981e-027   
     length 1.61236   
     axis -4.37994e-015 90 90   XYZ
    dof ry
    limits (-180.0 0.0)
 end
  begin
     id 21 
     name lhand
     direction 1 -4.49037e-011 1.40335e-026   
     length 0.936406   
     axis -8.96029e-015 90 90   XYZ
    dof rx rz
    limits (-90.0 90.0)
           (-45.0 45.0)
  end
  begin
     id 22 
     name lfingers
     direction 1 -4.48886e-011 2.8104e-026   
     length 0.754955   
     axis -1.79203e-014 90 90   XYZ
    dof rx
    limits (0.0 90.0)
  end
  begin
     id 23
     name lthumb
     direction 0.707107 -6.34937e-011 0.707107   
     length 1.08397   
     axis -90 45 -4.48555e-014   XYZ
    dof rx rz
    limits (-45.0 45.0)
           (-45.0 45.0)
  end
  begin
     id 24 
     name rclavicle
     direction -0.947962 0.317997 0.0156638   
     length 4.86918  
     axis 0 -0 0   XYZ 
    dof ry rz
    limits (-10.0 20.0)
           (-20.0 0.0)
  end
  begin
     id 25 
     name rhumerus
     direction -1 -4.48951e-011 2.80534e-018  
     length 5.60911   
     axis 180 30 90   XYZ
    dof rx ry rz
    limits (-90.0 60.0)
           (-90.0 90.0)
           (-90.0 90.0)
  end
  begin
     id 26 
     name rradius
     direction -1 -4.4898e-011 2.11315e-027   
     length 3.38704   
     axis 180 30 90   XYZ
    dof rx
    limits (-10.0 170.0)
  end
  begin
     id 27 
     name rwrist
     direction -1 -4.48933e-011 7.02314e-027   
     length 1.69352   
     axis -4.37994e-015 -90 -90   XYZ
    dof ry
    limits (-180.0 0.0)
  end
  begin
     id 28
     name rhand
     direction -1 -4.48937e-011 1.40458e-026   
     length 0.755878   
     axis -8.96029e-015 -90 -90   XYZ
    dof rx rz
    limits (-90.0 90.0)
           (-45.0 45.0)
  end
  begin
     id 29
     name rfingers
     direction -1 -4.4901e-011 2.80737e-026   
     length 0.609409   
     axis -1.79203e-014 -90 -90   XYZ
    dof rx
    limits (0.0 90.0)
  end
  begin
     id 30
     name rthumb
     direction -0.707107 -6.34968e-011 0.707107   
     length 0.874992   
     axis -90 -45 4.48555e-014   XYZ
    dof rx rz
    limits (-45.0 45.0)
           (-45.0 45.0)
  end
:hierarchy
  begin
    root lhipjoint rhipjoint lowerback
    lhipjoint lfemur
    lfemur ltibia
    ltibia lfoot
    lfoot ltoes
    rhipjoint rfemur
    rfemur rtibia
    rtibia rfoot
    rfoot rtoes
    lowerback upperback
    upperback thorax
    thorax lowerneck lclavicle rclavicle
    lowerneck upperneck
    upperneck head
    lclavicle lhumerus
    lhumerus lradius
    lradius lwrist
    lwrist lhand lthumb
    lhand lfingers
    rclavicle rhumerus
    rhumerus rradius
    rradius rwrist
    rwrist rhand rthumb
    rhand rfingers
  end

#!OML:ASF C:\ViconDB\ViconDB\414\Spring2016\041811\Spring2016.ASF
:FULLY-SPECIFIED
:DEGREES
105
root 9.81258 18.9417 -10.6573 1.16536 18.8247 358.207
lowerback 4.08761 -4.76919 -3.40105
upperback 0.295077 -6.48141 1.63844
thorax -1.411 -3.21717 3.88994
lowerneck -20.0965 -4.09034 -13.2529
upperneck 24.2145 -6.28393 17.0261
head 12.3545 -1.96081 7.84612
rclavicle -2.78671e-014 1.98785e-015
rhumerus -46.8384 -26.0708 17.4599
rradius 28.4554
rwrist 40.4402
rhand -30.1262 -14.5805
rfingers 7.12502
rthumb -3.43935 -44.5325
lclavicle -2.78671e-014 1.98785e-015
lhumerus -18.1393 -7.01136 1.22281
lradius 32.8982
lwrist -16.6362
lhand -29.2632 18.6975
lfingers 7.12502
lthumb -2.60589 48.6613
rfemur 168.022 17.2852 181.552
rtibia 34.5802
rfoot -17.9957 -58.5621
rtoes -1.61695
lfemur -3.9977 -2.65663 -12.031
ltibia 22.8595
lfoot -13.4788 -4.3173
ltoes -18.3882
106
root 9.87006 18.8621 -10.7295 0.546984 16.0936 358.28
lowerback 4.779 -4.78765 -3.15106
upperback 0.485798 -6.5115 1.58093
thorax -1.63138 -3.23056 3.75173
lowerneck -19.4856 -3.96219 -13.1338
upperneck 23.96 -6.19323 17.0492
head 12.1067 -1.93439 7.81897
rclavicle 7.07487e-014 -1.71949e-014
rhumerus -46.3756 -27.5952 18.8198
rradius 28.2258
rwrist 42.0525
rhand -30.0325 -14.684
rfingers 7.12502
rthumb -3.34884 -44.6374
lclavicle 7.07487e-014 -1.71949e-014
lhumerus -17.643 -6.66466 0.483697
lradius 33.2138
lwrist -16.1791
lhand -29.5476 19.9034
lfingers 7.12502
lthumb -2.8806 49.8637
rfemur 165.685 14.3513 180.143
rtibia 35.8887
rfoot -11.5489 -58.4196
rtoes -4.86546
lfemur -2.95256 -1.87322 -12.6101
ltibia 23.244
lfoot -14.6105 -2.58699
ltoes -18.7988
107
root 9.91224 18.7986 -10.7914 0.425235 13.3669 358.945
lowerback 5.136 -4.79339 -3.66781
upperback 0.496755 -6.55928 1.51838
thorax -1.76438 -3.24798 4.00777
lowerneck -18.8759 -3.8879 -13.1769
upperneck 23.967 -6.09693 16.856
head 11.9561 -1.94542 7.7522
rclavicle 1.12119e-013 2.26118e-015
rhumerus -45.6686 -28.2145 19.4332
rradius 28.3292
rwrist 42.697
rhand -30.2585 -14.7742
rfingers 7.12502
rthumb -3.56711 -44.7241
lclavicle 1.12119e-013 2.26118e-015
lhumerus -17.3524 -5.63372 0.0392264
lradius 33.3945
lwrist -16.6769
lhand -30.0675 19.2461
lfingers 7.12502
lthumb -3.38262 49.199
rfemur 163.586 11.9491 178.464
rtibia 37.4844
rfoot -6.67943 -58.7093
rtoes -8.58206
lfemur -2.21423 -1.43766 -13.7653
ltibia 23.4466
lfoot -15.7288 -0.762289
ltoes -19.1763
108
root 9.92473 18.7619 -10.8362 0.573763 10.6483 359.678
lowerback 5.11328 -4.78343 -4.25822
upperback 0.42109 -6.58562 1.24945
thorax -1.79309 -3.25494 4.05922
lowerneck -18.4867 -3.82702 -12.9823
upperneck 24.3617 -6.17364 16.837
head 12.0346 -1.98337 7.71909
rclavicle 1.03725e-014 6.95746e-015
rhumerus -45.2751 -28.4119 19.4288
rradius 28.6511
rwrist 42.4457
rhand -30.4242 -15.4556
rfingers 7.12502
rthumb -3.72713 -45.4028
lclavicle 1.03725e-014 6.95746e-015
lhumerus -17.2423 -6.44289 -0.325827
lradius 34.5998
lwrist -14.9131
lhand -30.7326 20.2345
lfingers 7.12502
lthumb -4.02489 50.1762
rfemur 161.781 9.60588 177.103
rtibia 39.248
rfoot -2.21971 -58.9852
rtoes -12.5103
lfemur -1.83741 -0.252115 -14.7746
ltibia 23.4507
lfoot -16.3876 0.248805
ltoes -19.7577
109
root 9.91966 18.7429 -10.8619 0.862711 8.00323 360.153
lowerback 4.75712 -4.7911 -4.89619
upperback 0.272766 -6.61817 1.27305
thorax -1.67012 -3.26815 4.40777
lowerneck -18.1717 -3.93028 -13.3436
upperneck 24.8741 -6.35885 16.9491
head 12.2211 -2.10771 7.83817
rclavicle -1.60393e-014 -5.42494e-015
rhumerus -44.577 -27.9659 19.0181
rradius 29.0186
rwrist 41.3858
rhand -30.872 -16.1157
rfingers 7.12502
rthumb -4.15953 -46.0549
lclavicle -1.60393e-014 -5.42494e-015
lhumerus -17.1264 -5.7232 -0.0951172
lradius 35.152
lwrist -14.8935
lhand -31.5481 21.0585
lfingers 7.12502
lthumb -4.81244 50.9839
rfemur 160.124 7.65671 176.297
rtibia 41.0413
rfoot 2.64319 -59.3029
rtoes -14.1354
lfemur -1.68812 1.10639 -15.3327
ltibia 23.3391
lfoot -16.6639 1.09235
ltoes -19.791
110
root 9.92172 18.7362 -10.8796 1.32487 5.47921 360.931
lowerback 4.06511 -4.88364 -5.43996
upperback 0.0965403 -6.74125 1.01887
thorax -1.42161 -3.33041 4.38932
lowerneck -18.0024 -3.89257 -13.1293
upperneck 25.4484 -6.38962 16.6398
head 12.3949 -2.14831 7.70324
rclavicle 5.74593e-015 4.02228e-015
rhumerus -44.0907 -27.4436 18.1749
rradius 29.444
rwrist 40.0527
rhand -31.7022 -17.0064
rfingers 7.12502
rthumb -4.96115 -46.9283
lclavicle 5.74593e-015 4.02228e-015
lhumerus -16.9994 -5.05758 0.0231373
lradius 35.6064
lwrist -14.4113
lhand -32.2945 20.4317
lfingers 7.12502
lthumb -5.5331 50.3394
rfemur 158.562 6.82354 175.315
rtibia 42.7095
rfoot 5.58496 -60.022
rtoes -15.9029
lfemur -1.71577 2.11154 -16.2821
ltibia 23.2786
lfoot -16.9061 1.89729
ltoes -19.5541
111
root 9.91697 18.7405 -10.8864 1.48171 3.11837 361.456
lowerback 3.54425 -5.01958 -5.87655
upperback -0.0443958 -6.91554 0.963484
thorax -1.21283 -3.41892 4.52983
lowerneck -17.457 -3.97008 -13.4444
upperneck 25.712 -6.48845 16.5395
head 12.4092 -2.2643 7.7162
rclavicle 5.85902e-014 2.57426e-014
rhumerus -43.3813 -26.2556 17.0828
rradius 29.8574
rwrist 38.2194
rhand -32.2587 -17.5325
rfingers 7.12502
rthumb -5.49847 -47.4412
lclavicle 5.85902e-014 2.57426e-014
lhumerus -17.1423 -4.59598 0.699311
lradius 36.2145
lwrist -13.9502
lhand -32.7711 20.7112
lfingers 7.12502
lthumb -5.99327 50.6065
rfemur 156.757 6.51641 174.771
rtibia 44.1099
rfoot 7.90861 -60.741
rtoes -15.9945
lfemur -1.53421 2.86639 -16.9974
ltibia 23.4101
lfoot -17.0634 2.99818
ltoes -20.1034
112
root 9.90714 18.7568 -10.8829 1.38886 0.815089 361.353
lowerback 3.16938 -5.17864 -5.48571
upperback -0.0119312 -7.08947 0.958962
thorax -0.996704 -3.51619 4.27271
lowerneck -17.3983 -4.02632 -13.493
upperneck 25.9976 -6.58221 16.4243
head 12.5251 -2.33409 7.68144
rclavicle -1.51185e-014 5.1684e-015
rhumerus -42.8184 -24.7618 15.4928
rradius 30.4702
rwrist 35.7601
rhand -32.8774 -18.3591
rfingers 7.12502
rthumb -6.09589 -48.2514
lclavicle -1.51185e-014 5.1684e-015
lhumerus -17.2661 -4.30506 1.38808
lradius 36.5846
lwrist -13.7373
lhand -33.6371 20.985
lfingers 7.12502
lthumb -6.82922 50.8549
rfemur 154.885 6.29556 175.083
rtibia 45.2003
rfoot 9.71875 -61.5185
rtoes -16.8039
lfemur -1.2296 3.62722 -16.9959
ltibia 23.7109
lfoot -17.0458 4.09675
ltoes -21.0233
113
root 9.8901 18.7801 -10.8818 1.19358 -1.4984 361.406
lowerback 2.87871 -5.2806 -5.31436
upperback 0.032586 -7.20165 1.009
thorax -0.790375 -3.58084 4.19751
lowerneck -17.3341 -4.05565 -14.0124
upperneck 26.2757 -6.58517 16.6336
head 12.6519 -2.37567 7.88807
rclavicle -2.24068e-014 -1.41137e-014
rhumerus -42.3405 -23.6104 14.2546
rradius 30.9611
rwrist 33.9627
rhand -33.3165 -18.5413
rfingers 7.12502
rthumb -6.51981 -48.4209
lclavicle -2.24068e-014 -1.41137e-014
lhumerus -17.4672 -4.24409 2.52988
lradius 37.1527
lwrist -12.9031
lhand -33.8985 21.4042
lfingers 7.12502
lthumb -7.08159 51.2657
rfemur 153.077 6.65369 175.329
rtibia 45.963
rfoot 10.8214 -62.5581
rtoes -16.1366
lfemur -1.00199 4.08618 -17.1394
ltibia 24.3506
lfoot -16.9858 5.23257
ltoes -21.3582
114
root 9.86318 18.8081 -10.8843 1.02244 -3.73675 361.526
lowerback 2.50471 -5.45965 -5.32324
upperback 0.113619 -7.41761 1.1144
thorax -0.45916 -3.70144 4.26419
lowerneck -17.0761 -4.09851 -14.6594
upperneck 26.2664 -6.52645 16.7449
head 12.6098 -2.41994 8.06186
rclavicle 2.24937e-014 -7.7526e-015
rhumerus -41.9157 -22.7629 13.1101
rradius 31.5379
rwrist 32.7491
rhand -33.4628 -18.3568
rfingers 7.12502
rthumb -6.661 -48.232
lclavicle 2.24937e-014 -7.7526e-015
lhumerus -18.0387 -3.95937 3.81187
lradius 37.6729
lwrist -12.6157
lhand -34.131 21.3786
lfingers 7.12502
lthumb -7.30606 51.2325
rfemur 151.443 7.55132 175.627
rtibia 46.4561
rfoot 10.1183 -63.9539
rtoes -16.557
lfemur -1.06183 4.84421 -17.2085
ltibia 25.3494
lfoot -16.5904 5.80466
ltoes -22.23
115
root 9.83012 18.8495 -10.8958 0.907428 -6.04761 361.539
lowerback 2.3122 -5.546 -4.93445
upperback 0.0694112 -7.51413 0.93929
thorax -0.460025 -3.74867 3.85641
lowerneck -16.8835 -4.07224 -14.3727
upperneck 26.4561 -6.54079 16.4039
head 12.6208 -2.45036 7.87046
rclavicle -2.44443e-014 1.98785e-016
rhumerus -42.0299 -21.562 11.7574
rradius 32.2234
rwrist 31.7034
rhand -33.6028 -18.0447
rfingers 7.12502
rthumb -6.79611 -47.9156
lclavicle -2.44443e-014 1.98785e-016
lhumerus -18.1678 -4.09092 4.72004
lradius 37.8868
lwrist -12.7418
lhand -34.119 21.1025
lfingers 7.12502
lthumb -7.29447 50.9568
rfemur 150.139 8.3883 176.128
rtibia 46.6658
rfoot 9.20565 -65.3754
rtoes -17.2581
lfemur -1.43561 5.30039 -17.1586
ltibia 26.6921
lfoot -16.0102 6.52286
ltoes -23.303
116
root 9.78607 18.8873 -10.9117 0.909187 -8.38754 361.603
lowerback 2.00709 -5.59562 -4.90338
upperback 0.0134794 -7.56496 0.993883
thorax -0.339086 -3.77667 3.86467
lowerneck -16.6347 -4.14831 -14.7569
upperneck 26.3954 -6.62276 16.5524
head 12.5812 -2.52573 7.98448
rclavicle -8.67074e-014 -3.57812e-015
rhumerus -42.2064 -20.8256 10.9677
rradius 32.7658
rwrist 31.8122
rhand -33.5456 -17.1462
rfingers 7.12502
rthumb -6.74096 -47.0189
lclavicle -8.67074e-014 -3.57812e-015
lhumerus -18.5194 -4.52387 6.00327
lradius 38.0522
lwrist -13.1549
lhand -34.0814 20.8284
lfingers 7.12502
lthumb -7.25816 50.6839
rfemur 149.13 9.5963 176.627
rtibia 46.6342
rfoot 8.27511 -67.1541
rtoes -17.0962
lfemur -2.07844 5.8648 -16.9967
ltibia 28.2693
lfoot -15.1762 6.67157
ltoes -24.3056
117
root 9.73652 18.9313 -10.935 0.924515 -10.7049 361.633
lowerback 1.76227 -5.67656 -4.91599
upperback -0.0433413 -7.66159 1.10152
thorax -0.234956 -3.82723 3.95656
lowerneck -16.7 -4.1671 -15.0063
upperneck 26.6162 -6.58452 16.4761
head 12.6821 -2.54889 8.02178
rclavicle 1.76689e-013 4.57205e-015
rhumerus -42.1926 -19.9881 9.9626
rradius 33.3673
rwrist 31.5355
rhand -33.1942 -16.8671
rfingers 7.12502
rthumb -6.40166 -46.7504
lclavicle 1.76689e-013 4.57205e-015
lhumerus -18.9328 -4.95361 7.24283
lradius 38.0803
lwrist -13.6289
lhand -33.7596 20.1467
lfingers 7.12502
lthumb -6.94748 50.0127
rfemur 148.334 10.7753 177.135
rtibia 46.3586
rfoot 6.0586 -68.8981
rtoes -19.0203
lfemur -2.9487 6.49834 -16.6585
ltibia 30.1103
lfoot -14.0518 6.36705
ltoes -25.0439
118
root 9.67379 18.9774 -10.9591 0.991514 -13.1944 361.531
lowerback 1.486 -5.63542 -4.66953
upperback -0.138808 -7.59062 0.99241
thorax -0.233422 -3.78965 3.68851
lowerneck -16.6954 -4.11622 -14.7912
upperneck 26.9033 -6.64371 16.5049
head 12.8015 -2.56074 8.00629
rclavicle 4.91681e-014 4.57205e-015
rhumerus -42.6818 -19.0562 8.92309
rradius 33.9342
rwrist 31.2901
rhand -32.6973 -16.1227
rfingers 7.12502
rthumb -5.92194 -46.02
lclavicle 4.91681e-014 4.57205e-015
lhumerus -19.0096 -5.48615 8.03824
lradius 37.8339
lwrist -14.8968
lhand -33.3145 19.0728
lfingers 7.12502
lthumb -6.51779 48.9525
rfemur 147.762 11.9942 177.848
rtibia 45.9288
rfoot 3.46231 -70.6996
rtoes -20.3
lfemur -3.93011 7.27271 -15.9698
ltibia 32.115
lfoot -12.5077 5.29439
ltoes -26.5364
119
root 9.60277 19.0191 -10.9881 1.03678 -15.661 361.338
lowerback 1.13631 -5.66477 -4.63622
upperback -0.0648801 -7.61107 1.10401
thorax 0.0506262 -3.80919 3.73935
lowerneck -16.8504 -4.1027 -14.9056
upperneck 27.098 -6.63531 16.5882
head 12.9205 -2.56299 8.08213
rclavicle 4.02601e-014 3.97569e-016
rhumerus -42.7288 -19.4372 8.46457
rradius 33.7916
rwrist 32.2423
rhand -32.4265 -15.0343
rfingers 7.12502
rthumb -5.66056 -44.9387
lclavicle 4.02601e-014 3.97569e-016
lhumerus -19.3356 -6.15062 9.03389
lradius 37.7421
lwrist -15.3742
lhand -32.531 18.7757
lfingers 7.12502
lthumb -5.76141 48.6774
rfemur 147.226 13.2233 178.658
rtibia 45.385
rfoot 1.87726 -72.1098
rtoes -20.9423
lfemur -4.86838 7.92011 -15.0011
ltibia 34.1284
lfoot -10.7715 3.62231
ltoes -27.0562
